<svg id="Layer_1" data-name="Layer 1" xmlns="http://www.w3.org/2000/svg" viewBox="0 0 220.25 111"><defs><style>.cls-1{fill:#af3549;}.cls-2{fill:#ff4b59;}</style></defs><title>1wd-logo</title><polygon class="cls-1" points="15.76 0 0 29 15.76 29 15.76 111 44.76 111 44.76 0 15.76 0"/><path class="cls-1" d="M164.75,0l-16,29h16a26.5,26.5,0,0,1,0,53H120.43l-15.68,29h60a55.5,55.5,0,0,0,0-111Z"/><rect class="cls-1" x="75.75" width="29" height="111"/><polygon class="cls-2" points="44.76 111 104.75 0 75.75 0 15.76 111 44.76 111"/><polygon class="cls-2" points="104.75 111 164.75 0 135.75 0 75.75 111 104.75 111"/></svg>